# xmcd
#
# Track frame offsets:
#	150
#	16667
#	31907
#	46224
#	58500
#	70221
#	83555
#	102561
#	118307
#
# Disc length: 1909 seconds
#
# Revision: 0
# Processed by: cddbd v1.4PL0 Copyright (c) Steve Scherf et al.
# Submitted via: dBpowerAMP V4.0
#
DISCID=6d077309
DTITLE=Gospel Oak - Gospel Oak
DYEAR=1970
DGENRE=Blues
TTITLE0=Brown Haired Girl
TTITLE1=Common Expression
TTITLE2=Recollections Of Jessica
TTITLE3=South Bleach
TTITLE4=Big Fat White Man
TTITLE5=Why We Came
TTITLE6=Go Talk To Rachel
TTITLE7=O.K. Sam
TTITLE8=St. Anne´s Pretension
EXTD=
EXTT0=
EXTT1=
EXTT2=
EXTT3=
EXTT4=
EXTT5=
EXTT6=
EXTT7=
EXTT8=
PLAYORDER=
